<svg xmlns="http://www.w3.org/2000/svg" viewBox="0 0 672.11 471.49"><defs><style>.cls-1{isolation:isolate;}.cls-2{opacity:0.28;}.cls-3{fill:#f89da6;}.cls-4{fill:#efccaf;}.cls-4,.cls-6{opacity:0.7;}.cls-5{fill:#f7dfcb;}.cls-7{fill:#fff9f3;}.cls-21,.cls-8{opacity:0.5;}.cls-51,.cls-52,.cls-9{fill:#fff;}.cls-10{opacity:0.45;}.cls-11{opacity:0.4;}.cls-12{fill:#ffb6ac;}.cls-13{fill:#b0b2ff;}.cls-14{fill:#f4bec6;}.cls-15{fill:#003051;}.cls-16{fill:#5643b9;}.cls-17{fill:#b64e41;}.cls-18{fill:#a03d35;}.cls-19,.cls-21,.cls-41{fill:#f1a350;}.cls-20{fill:#e78b38;}.cls-21{mix-blend-mode:multiply;}.cls-22,.cls-51{opacity:0.3;}.cls-23,.cls-28{opacity:0.08;}.cls-24{fill:#ffa49c;}.cls-25,.cls-31,.cls-39,.cls-46{fill:none;stroke:#fff;stroke-miterlimit:10;}.cls-25{stroke-width:0.57px;}.cls-26{fill:#222b54;}.cls-27{fill:#f9aba5;}.cls-29{fill:#ffb9b0;}.cls-30{fill:#5343b2;}.cls-31{stroke-width:0.56px;}.cls-32{fill:#ffac85;}.cls-33{fill:#042c59;}.cls-34{opacity:0.6;}.cls-35{fill:#ffd9c0;}.cls-36{fill:#ffcca9;}.cls-37{fill:#ff956f;}.cls-38{fill:#1b227a;}.cls-39{stroke-width:0.56px;}.cls-40{fill:#2c2c59;}.cls-41{font-size:35.16px;font-family:Montserrat-ExtraBold, Montserrat;font-weight:800;letter-spacing:0.1em;}.cls-42{letter-spacing:0.07em;}.cls-43{letter-spacing:0.1em;}.cls-44{fill:#eaa057;}.cls-45{fill:#fdc067;}.cls-46{stroke-width:0.62px;}.cls-47{fill:#542e1e;}.cls-48{fill:#293f7c;}.cls-49{fill:#2c1e56;}.cls-50{fill:#ffa8a1;}.cls-52{opacity:0.2;}.cls-53{fill:#e08032;}.cls-54{fill:#f4b798;}.cls-55{fill:#f99e7a;}</style></defs><g class="cls-1"><g id="Layer_2" data-name="Layer 2"><g id="OBJECTS"><g class="cls-2"><path class="cls-3" d="M460.7,156.29V68.39l-59.61,65.16V241.89H362.68V86.62h-9.77l-27.81-26-28,26h-9.6V296.16H210.75V200.77H146.23V331.41h407.6V156.29ZM352.91,212H297.3v-5.68h55.61Zm0-11.34H297.3V195h55.61Zm0-11.33H297.3v-5.67h55.61Zm0-11.34H297.3v-5.67h55.61Zm0-11.32H297.3V161h55.61Zm0-11.34H297.3v-5.68h55.61Zm0-11.34H297.3v-5.66h55.61Zm0-11.33H297.3V127h55.61Zm0-11.34H297.3v-5.67h55.61Zm0-11.32H297.3v-5.68h55.61Zm0-11.34H297.3V93h55.61ZM453.14,327.73h-5.77V95.82l5.77-6.33Z"/><path class="cls-3" d="M529.82,257V96.68h-7.23V80.45H466.7V96.68h-7.19V298.26H407.06V207H330.67V326.76H293.76V112.18H218.52V277h-8.83V178.9H196.08l-38-20v20h-8.3V300.11H131.41V136H112.78V78.39h-2.56V136H91.59V343.21h485.3V257Zm-402.9-15.58H96.17v-3.57h30.75Zm0-8.26H96.17v-3.56h30.75Zm0-8.26H96.17v-3.57h30.75Zm0-8.26H96.17V213.1h30.75Zm0-8.25H96.17v-3.57h30.75Zm0-8.26H96.17v-3.57h30.75Zm0-8.26H96.17v-3.57h30.75Zm0-8.25H96.17v-3.57h30.75Zm0-8.27H96.17V171.8h30.75Zm0-8.25H96.17v-3.57h30.75Zm0-8.26H96.17V155.3h30.75Zm0-8.26H96.17V147h30.75Zm0-8.26H96.17v-3.56h30.75ZM234.73,191.5h-9.16v-9.14h9.16Zm0-15.25h-9.16v-9.16h9.16Zm0-15.26h-9.16v-9.15h9.16Zm0-15.25h-9.16v-9.16h9.16Zm0-15.26h-9.16v-9.16h9.16Zm17.38,61H243v-9.14h9.14Zm0-15.25H243v-9.16h9.14Zm0-15.26H243v-9.15h9.14Zm0-15.25H243v-9.16h9.14Zm0-15.26H243v-9.16h9.14Zm17.4,61h-9.16v-9.14h9.16Zm0-15.25h-9.16v-9.16h9.16Zm0-15.26h-9.16v-9.15h9.16Zm0-15.25h-9.16v-9.16h9.16Zm0-15.26h-9.16v-9.16h9.16Zm17.38,61h-9.14v-9.14h9.14Zm0-15.25h-9.14v-9.16h9.14Zm0-15.26h-9.14v-9.15h9.14Zm0-15.25h-9.14v-9.16h9.14ZM537,332.49h-9.51V323H537Zm0-19.05h-9.51v-9.51H537Zm0-19.05h-9.51v-9.51H537Zm0-19.05h-9.51v-9.51H537Zm17.65,57.15h-9.51V323h9.51Zm0-19.05h-9.51v-9.51h9.51Zm0-19.05h-9.51v-9.51h9.51Zm0-19.05h-9.51v-9.51h9.51Zm17.65,57.15H562.8V323h9.52Zm0-19.05H562.8v-9.51h9.52Zm0-19.05H562.8v-9.51h9.52Zm0-19.05H562.8v-9.51h9.52Z"/><path class="cls-3" d="M590.59,343.37H81.51a1,1,0,0,1-1-1h0a1,1,0,0,1,1-1H590.59a1,1,0,0,1,1,1h0A1,1,0,0,1,590.59,343.37Z"/><path class="cls-3" d="M579.14,348.35H90.05a1,1,0,0,1-1-1h0a1,1,0,0,1,1-1H579.14a1,1,0,0,1,1,1h0A1,1,0,0,1,579.14,348.35Z"/></g><rect class="cls-3" y="348.35" width="672.11" height="123.13" rx="61.57"/><path class="cls-4" d="M233.4,441.37S219.46,429.91,227,425.5s10.81,10.11,10.81,10.11-5.81-18.89,2.47-19.12S245.07,434,245.07,434s1.27-12.65,7.14-10.93,1.62,11.62,1.62,11.62,3.46-8.22,7.14-4.34-6,11-6,11Z"/><path class="cls-5" d="M235.24,445.36s-5.53-7.75-2.3-8.9,5.68,3.84,5.68,3.84-1.22-6.06,2.54-6.22c3.26-.15,3.16,5.62,3.16,5.62s1.9-6.72,5.17-5.13c3.45,1.69,1.19,6.11,1.19,6.11s3.85-3.6,5.83-1.69c2.19,2.11-2.76,6.37-2.76,6.37Z"/><path class="cls-4" d="M600.41,394.5s-12-9.84-5.53-13.63,9.28,8.68,9.28,8.68-5-16.22,2.13-16.41,4.14,15,4.14,15,1.09-10.86,6.13-9.38,1.39,10,1.39,10,3-7.06,6.13-3.72-5.14,9.46-5.14,9.46Z"/><path class="cls-5" d="M602,397.93s-4.75-6.66-2-7.65,4.88,3.3,4.88,3.3-1-5.2,2.18-5.35c2.8-.12,2.71,4.84,2.71,4.84s1.63-5.78,4.44-4.41c3,1.45,1,5.24,1,5.24s3.31-3.09,5-1.45c1.88,1.82-2.37,5.48-2.37,5.48Z"/><path class="cls-4" d="M374.76,416.85s-8.22-6.75-3.79-9.34,6.36,5.95,6.36,5.95-3.42-11.12,1.46-11.26,2.84,10.31,2.84,10.31.75-7.45,4.21-6.43,1,6.84,1,6.84,2-4.84,4.21-2.56-3.53,6.49-3.53,6.49Z"/><path class="cls-5" d="M375.84,419.21s-3.25-4.57-1.35-5.25,3.34,2.26,3.34,2.26-.72-3.57,1.49-3.66c1.93-.09,1.87,3.31,1.87,3.31s1.12-4,3-3,.7,3.6.7,3.6,2.27-2.12,3.44-1-1.63,3.76-1.63,3.76Z"/><g class="cls-6"><path class="cls-3" d="M183.75,348.59H65.33c-15.1,0-19.53-32.76,48-9.94-10.3-4.71-10.36-11-9.49-12.7s3.75-2.54,5.49-2.39c5.34.46,9.39,3.73,14.07,6.35-8.46-5.51-21-19.83-15.69-28.42,7-11.25,24.61-2.17,28.76,1.85-21.16-19.47-23.6-45.24-10.05-52.24,22.81-11.78,35.81,32.59,37.06,39.64,0,0-15-47.63,9.37-51,29-4,26.4,46.9,26.4,46.9s3.61-23.75,27.71-15.12,14.39,76.88,14.39,76.88"/></g><g class="cls-6"><path class="cls-3" d="M508,348.59H626.42c15.1,0,19.53-32.76-48-9.94,10.31-4.71,10.37-11,9.5-12.7s-3.75-2.54-5.49-2.39c-5.34.46-9.39,3.73-14.08,6.35,8.47-5.51,21-19.83,15.69-28.42-6.94-11.25-24.6-2.17-28.75,1.85,21.16-19.47,23.6-45.24,10.05-52.24-22.81-11.78-35.81,32.59-37.06,39.64,0,0,15-47.63-9.37-51-29-4-26.4,46.9-26.4,46.9s-3.61-23.75-27.71-15.12-14.39,76.88-14.39,76.88"/></g><path class="cls-7" d="M94.66,284.25a2,2,0,1,1-2-2A2,2,0,0,1,94.66,284.25Z"/><path class="cls-7" d="M63.25,101.81a2,2,0,1,1-2-2A2,2,0,0,1,63.25,101.81Z"/><path class="cls-7" d="M204,56.38a2,2,0,1,1-2-2A2,2,0,0,1,204,56.38Z"/><path class="cls-7" d="M653.06,208.32a2,2,0,1,1-2-2A2,2,0,0,1,653.06,208.32Z"/><path class="cls-7" d="M154.19,122.21a2,2,0,1,1-2-2A2,2,0,0,1,154.19,122.21Z"/><path class="cls-7" d="M263.05,54.37a2,2,0,1,1-2-2A2,2,0,0,1,263.05,54.37Z"/><path class="cls-7" d="M363.66,64.94a2,2,0,1,1-2-2A2,2,0,0,1,363.66,64.94Z"/><path class="cls-7" d="M542.4,173.73a2,2,0,1,1-2-2A2,2,0,0,1,542.4,173.73Z"/><path class="cls-7" d="M122.21,184.43h-2v-2a.79.79,0,0,0-1.58,0v2h-2a.79.79,0,0,0,0,1.58h2v2a.79.79,0,1,0,1.58,0v-2h2a.79.79,0,1,0,0-1.58Z"/><path class="cls-7" d="M578.19,162.29h-2v-2a.79.79,0,1,0-1.58,0v2h-2a.79.79,0,1,0,0,1.57h2v2a.79.79,0,0,0,1.58,0v-2h2a.79.79,0,0,0,0-1.57Z"/><path class="cls-7" d="M438.75,130.62h-2v-2a.79.79,0,1,0-1.58,0v2h-2a.79.79,0,0,0,0,1.58h2v2a.79.79,0,1,0,1.58,0v-2h2a.79.79,0,0,0,0-1.58Z"/><path class="cls-7" d="M271.69,202.39h-2v-2a.79.79,0,1,0-1.57,0v2h-2a.79.79,0,1,0,0,1.57h2v2a.79.79,0,1,0,1.57,0v-2h2a.79.79,0,1,0,0-1.57Z"/><path class="cls-7" d="M604.7,261.34h-2v-2a.79.79,0,1,0-1.57,0v2h-2a.79.79,0,0,0,0,1.58h2v2a.79.79,0,1,0,1.57,0v-2h2a.79.79,0,1,0,0-1.58Z"/><path class="cls-7" d="M416.62,179.86h-2v-2a.79.79,0,0,0-1.58,0v2h-2a.79.79,0,0,0,0,1.58h2v2a.79.79,0,0,0,1.58,0v-2h2a.79.79,0,1,0,0-1.58Z"/><path class="cls-7" d="M539.35,70.71a3.77,3.77,0,1,1-3.77-3.77A3.77,3.77,0,0,1,539.35,70.71Z"/><path class="cls-7" d="M395.2,109.47a3.78,3.78,0,1,1-3.78-3.77A3.77,3.77,0,0,1,395.2,109.47Z"/><path class="cls-7" d="M300,19.44a3.77,3.77,0,1,1-3.77-3.77A3.77,3.77,0,0,1,300,19.44Z"/><path class="cls-7" d="M133.74,37.59A3.77,3.77,0,1,1,130,33.82,3.77,3.77,0,0,1,133.74,37.59Z"/><path class="cls-7" d="M624.5,193.91a3.77,3.77,0,1,1-3.77-3.77A3.77,3.77,0,0,1,624.5,193.91Z"/><path class="cls-7" d="M436.17,27a3.77,3.77,0,1,1-3.77-3.78A3.77,3.77,0,0,1,436.17,27Z"/><path class="cls-7" d="M193,78.26a3.77,3.77,0,1,1-3.77-3.77A3.77,3.77,0,0,1,193,78.26Z"/><path class="cls-7" d="M153.33,201.33a3.77,3.77,0,1,1-3.77-3.77A3.77,3.77,0,0,1,153.33,201.33Z"/><path class="cls-7" d="M20.72,257.16A3.77,3.77,0,1,1,17,253.39,3.77,3.77,0,0,1,20.72,257.16Z"/><path class="cls-7" d="M77.66,127.84a3.77,3.77,0,1,1-3.77-3.77A3.77,3.77,0,0,1,77.66,127.84Z"/><g class="cls-8"><path class="cls-9" d="M668.62,115.09c-5.18-3.34-21.54-.33-21.54-.33s3.81-1.53,3.79-3.5a5.33,5.33,0,0,0-3.31-4.52,12.24,12.24,0,0,0-5.8-.77,37,37,0,0,0-11.69,2.62,3.39,3.39,0,1,0-3.93-5.51c2.51-3.4,6.4-18.48-5.54-25.13-15-8.33-26.34-1.48-28.77,3.54-1.23-4.92-6.87-8.65-10.59-9.58-8.49-2.1-14-1.48-21.94,2.22-2.8,1.31-6.55,5.78-8.41,8.25a15.21,15.21,0,0,0-2.44,5.08A11.79,11.79,0,0,0,542,88.94c-8.83,4.92-5.95,16.07-4.1,18.59a2.5,2.5,0,1,0-2.9,4.06,27.58,27.58,0,0,0-8.64-1.93,9,9,0,0,0-4.29.57,4,4,0,0,0-2.45,3.34c0,1.45,2.81,2.58,2.81,2.58s-12.1-2.22-15.93.25c-4.52,2.92-1.9,3.73-1.06,3.71,24.79-.33,134.41-.41,164.6,0C671.19,120.13,674.73,119,668.62,115.09Z"/></g><g class="cls-10"><path class="cls-9" d="M169.55,88.69q-3.2.24-6,.62c2.88-1,5.8-2.58,4.51-5-2.34-4.29-11-1.5-11-1.5s5-7.5,0-13.17c-3.41-3.86-10.87-1.53-14.17-.25,0-2.5-2.75-9.66-8.53-12.45-7.87-3.81-13.44-4.33-21.93-2.22-3.72.92-9.37,4.65-10.6,9.57C99.4,59.33,88,52.47,73.06,60.8c-11.94,6.65-8,21.74-5.54,25.14a3.39,3.39,0,1,0-3.93,5.5A37.29,37.29,0,0,0,51.9,88.83a12.42,12.42,0,0,0-5.81.76,5.35,5.35,0,0,0-3.3,4.52c0,2,3.79,3.5,3.79,3.5S30.22,94.61,25,98c-6.11,3.94-2.57,5-1.44,5l100.61-1.37h51.13a6,6,0,0,0,6.08-5.8C181.42,92.8,179.06,88,169.55,88.69Z"/></g><g class="cls-11"><path class="cls-9" d="M296.09,35.15c2.12.15,4.12.37,6,.62-2.88-1-5.8-2.59-4.51-5,2.34-4.29,11-1.5,11-1.5s-5-7.5,0-13.17c3.41-3.86,10.86-1.53,14.16-.25,0-2.5,2.75-9.66,8.53-12.46,7.87-3.8,13.45-4.32,21.93-2.21,3.72.92,9.37,4.65,10.6,9.57,2.43-5,13.8-11.87,28.76-3.54,11.95,6.65,8.06,21.73,5.55,25.14a3.39,3.39,0,1,1,3.93,5.5,37,37,0,0,1,11.69-2.61,12.12,12.12,0,0,1,5.8.76,5.34,5.34,0,0,1,3.31,4.52c0,2-3.79,3.5-3.79,3.5s16.36-3,21.54.33c6.11,4,2.56,5,1.44,5L341.43,48.06H290.29a6,6,0,0,1-6.08-5.8C284.21,39.25,286.57,34.48,296.09,35.15Z"/></g><path class="cls-12" d="M214,158.35s4.26,10.27,9,20c11.34,5.49,19.34,8.69,20.47,9-.3,1.51-1.18,4.8-1.18,4.8s-17.49-2-23-4.86-8.57-8.68-15.17-23.44C211.36,155,214,158.35,214,158.35Z"/><path class="cls-13" d="M213,156.73a48.82,48.82,0,0,1,9.29,12.84c-3.88,5.49-12.12,10-12.12,10s-9.1-8.53-11.64-15.83C209,159.34,213,156.73,213,156.73Z"/><path class="cls-14" d="M236,357.2c0,2.1-19.35,3.81-43.23,3.81s-43.23-1.71-43.23-3.81,19.35-3.81,43.23-3.81S236,355.1,236,357.2Z"/><path class="cls-15" d="M210,124.17a16.3,16.3,0,0,1,2.28,6.47,7.35,7.35,0,0,1-2.31,6.23,3,3,0,0,1-3.39.6,3.29,3.29,0,0,1-.74-.65,11.89,11.89,0,0,1-2.92-9.58"/><path class="cls-12" d="M167.21,341.07s-1.93,5.6-2.49,7-4.71.11-4.95-.8,1.63-7.59,1.63-7.59"/><path class="cls-16" d="M158.54,347.42c-.5,1.49-1.44,3.61-1.24,4.36s5.47,3,6.65,3.71a14.65,14.65,0,0,0,3.81,1.44c3.51.63,6.2,0,6.47-.52,1.11-2.28-5.83-3.79-8.79-10.2a1.44,1.44,0,0,0-1.08.48,2.44,2.44,0,0,1-3,.6,3.9,3.9,0,0,1-1.46-1.67A2.73,2.73,0,0,0,158.54,347.42Z"/><path class="cls-12" d="M213.61,343.38s-.14,5.92-.24,7.43-4.46,1.54-5,.75-.76-7.73-.76-7.73"/><path class="cls-16" d="M207.28,352.06c0,1.57-.28,3.88.14,4.53s6.12,1.19,7.47,1.51a14.25,14.25,0,0,0,4.07.22c3.53-.46,5.91-1.86,6-2.46.37-2.51-6.71-1.84-11.48-7.05a1.43,1.43,0,0,0-.87.79,2.44,2.44,0,0,1-2.65,1.47,3.83,3.83,0,0,1-1.89-1.15A2.72,2.72,0,0,0,207.28,352.06Z"/><path class="cls-17" d="M219.34,287.55c1-12.73-3.43-52.63-3.86-56.07s-2.84-3.87-4.69-4.43c-9.2-2.77-20.12,11.51-17.21,24.33,0,.21.1.43.15.65,1.73,7.43,11.5,31.29,10.81,38.19-5.34,14.44.73,44.36,2.56,56.94.22,0,.44,0,.65,0a37.26,37.26,0,0,0,7.19-.79S218.37,300.28,219.34,287.55Z"/><path class="cls-18" d="M207.65,290.06c.34-4.7-4.42-42.07-5.59-41.56a2.08,2.08,0,0,0-.85.93c-1,1.69-1.92,3.41-2.75,5.18a45.93,45.93,0,0,0-2.18,5.64c3.44,10.16,8.78,24.81,8.26,30-3.17,8.56-2.32,22.56-.73,35.16C203.19,308.8,207.39,293.81,207.65,290.06Z"/><path class="cls-17" d="M214,217.9a43.86,43.86,0,0,1-10.46.68c-8.84-.23-20.06-4.71-20.06-4.71-11.29,12.21-5.09,26.52-5.48,31.22s-1.3,27-2.31,39.5c-11.44,11.21-11.86,41-15.21,56.67l-.12.53a38.85,38.85,0,0,0,7.59,2.12l.44-1.25c3.41-10.31,19.15-39.86,23.07-51.41C195,280.77,204.2,249,204.37,249l11.7,2C216.1,230.73,214,217.9,214,217.9Z"/><path class="cls-12" d="M187.63,132.76a17.61,17.61,0,0,0,1.32,5.79c1.37,3.77,3.32,7.69,3.44,8.23.81,3.87-2.39,6.67-2.39,6.67l4.39,7,1.41,2.28,1.62-.92,5-2.77,1.15-5.28a3.35,3.35,0,0,1-.71-2.3c0-.2,0-.38,0-.57,0-.55,0-1,0-1.14a38.57,38.57,0,0,0,4-.75c2.38-.56,3.64-2.94,3.78-5.49.11-2,.36-12.56.36-12.56.41-18.56-17.3-9.42-20-7.73S187.83,128.92,187.63,132.76Z"/><path class="cls-9" d="M175.68,231.62c2.21.41,4.35.73,6.45,1A105.89,105.89,0,0,0,217,231.4a266.06,266.06,0,0,1-.08-29.48c.72-13.74,2.82-28.77-.57-40.55-1.33-4.62-7.78-6.85-12.81-7.59-4.19,7.41-13.28-.46-13.28-.46a46.76,46.76,0,0,0-9.09,6.18,4.63,4.63,0,0,0-1,2.38,62.45,62.45,0,0,0-.77,10.23c-.12,6.42.15,12.88,0,13.08s-.2,3.84-.38,9l0,.82C178.67,203.14,176.81,224.53,175.68,231.62Z"/><rect class="cls-19" x="201.9" y="154.45" width="43.34" height="40.16" transform="translate(-12.94 17.99) rotate(-4.48)"/><rect class="cls-20" x="197.09" y="156.33" width="4.88" height="40.16" transform="translate(412.23 336.7) rotate(175.52)"/><rect class="cls-21" x="200.58" y="154.5" width="43.34" height="6.23" transform="translate(-11.63 17.83) rotate(-4.48)"/><rect class="cls-21" x="195.77" y="156.38" width="4.88" height="6.23" transform="translate(408.26 303.04) rotate(175.52)"/><rect class="cls-19" x="200.43" y="152.63" width="44.26" height="6.15" transform="translate(-11.48 17.85) rotate(-4.48)"/><rect class="cls-20" x="194.36" y="154.6" width="6.14" height="6.15" transform="translate(406.58 299.45) rotate(175.52)"/><g class="cls-22"><path class="cls-9" d="M224.71,165.75a2.4,2.4,0,0,1-.37-1.67h0l-2.23.21-2.23.21h0a2.35,2.35,0,0,1,0,1.71,9,9,0,0,1-2,2.93l-.05.05a4.58,4.58,0,0,0-1.37,3.72l1.4,14.75a1.8,1.8,0,0,0,1.95,1.61l9.37-.89a1.79,1.79,0,0,0,1.61-1.95l-1.4-14.75a4.61,4.61,0,0,0-2.05-3.4l0,0A8.86,8.86,0,0,1,224.71,165.75Z"/><path class="cls-9" d="M224.37,164.47l-4.44.42a1,1,0,0,1-1.12-.93h0a1,1,0,0,1,.93-1.12l4.44-.42a1,1,0,0,1,1.12.93h0A1,1,0,0,1,224.37,164.47Z"/></g><path class="cls-12" d="M179.79,177.65a72.7,72.7,0,0,0,13.76,15.64c2.44,2,5.44,4.43,8.59,4.19,9.43-.74,25.9-8.59,31.5-11.53-1.31-4-2.38-4.57-2.38-4.57s-17.88,3.35-28.19,6.21A86.56,86.56,0,0,1,191.6,169"/><path class="cls-12" d="M230.75,181.53a12.2,12.2,0,0,0,4.47-2.18c1.45-1.4,4.73-4.58,7.4-4.53,1,0,2.79,1.23,3.72,3.35,1.73,4,.55,6.17-.24,6.66-.34-1.07-1.13-2.32-2.75-1.75s-2,1.56-3.27,2.64c-2,1.62-5.23,0-6.66.34C232.41,186.33,230.75,181.53,230.75,181.53Z"/><path class="cls-9" d="M192,165.42a54.41,54.41,0,0,0,4.31,11.64s-2.16,5.49-11.24,10.24c0,0-10.26-7.24-9.37-19.58.45-6.21,8.06-11.21,13.07-13.61"/><path class="cls-23" d="M196.29,177.06s-.25-.75-.66-1.84l-1.54-4-.82-2.12c-.24-.68-.5-1.3-.68-1.85s-.36-1-.44-1.34l-.17-.51a12.12,12.12,0,0,0,.21,2,23.77,23.77,0,0,0,1.22,4.14,30.94,30.94,0,0,0,1.85,3.88A18.45,18.45,0,0,0,196.29,177.06Z"/><path class="cls-15" d="M205.59,128.83c3.7-.1,9.08,0,9.76-4.66,1.73-12-10.85-10.56-16.57-7.53a27.31,27.31,0,0,1-5.45,1.91c-6.4,1.7-8.51,7-8.69,12.84,0,0,.09,12.57,8.77,15.47a25.63,25.63,0,0,0,.6-5.61s-3.73-1.47-4.18-4.76a2,2,0,0,1,2.59-2.35c1.72.29,1.87,2.54,1.87,2.54a23,23,0,0,0,.83-4.54,3.71,3.71,0,0,0-.71-2.3C194.64,129.58,197.3,129.07,205.59,128.83Z"/><path class="cls-24" d="M196.83,148.91a13.59,13.59,0,0,0,6,2c0-.55,0-1,0-1.14S198.7,149.81,196.83,148.91Z"/><path class="cls-12" d="M246.74,187.82a1.5,1.5,0,0,0-1.93.63c-.75,1.19-.49,4.43-1.34,4.66l-3.77.29a19.58,19.58,0,0,0,5.46,1.13C248.55,194.53,248.37,189.69,246.74,187.82Z"/><path class="cls-9" d="M198.21,138.05s-.67,5.68-2.11,8.09c0,0,6.37,4.52,11.29,2.67s3.32-10.44,3.32-10.44A90.76,90.76,0,0,1,198.21,138.05Z"/><path class="cls-25" d="M196.71,146.17s-4.12-3.25-5.35-7.31"/><path class="cls-25" d="M193.26,135.65a10.13,10.13,0,0,0,6.25,2.82"/><path class="cls-12" d="M194.27,137.14s.43-2.92-2.34-3-2.51,2.69-1.13,4.71,3.09,2.86,3.49,2.52S194.29,137.82,194.27,137.14Z"/><path class="cls-26" d="M332.09,128.92c-2.24,3.87-.3,9.16-2.56,13-.91,1.54-2.44,2.75-2.88,4.49a3.92,3.92,0,0,0,5.64,4.41,5,5,0,0,1,.87-.43c1.12-.33,2.13.67,3.09,1.32a4.68,4.68,0,0,0,4.07.72c1.73-.58,2.81-2.33,3.39-4.07,1.61-4.85.46-10.17-1-15.06-.75-2.45-1.85-5.16-4.25-6"/><path class="cls-27" d="M311.54,184.47c2.07-.74,11.44-20.29,14.57-26.19a8.93,8.93,0,0,1,5.19-4.64c3.79,2.05,4.23,6.79,3.1,10.83-4.73,16.92-19.16,30.58-21.29,30.58C313.79,194.58,311.54,184.47,311.54,184.47Z"/><path class="cls-27" d="M285.47,180.2c-4.27-.32-8.69-2.32-11.43-3.76s-2.89-3.48-1.43-3.81c.81-.18,4,1,5.35,1.46s2.45.63,2.59.25-.23-.45-1.81-1.19-2.39-1.61-.91-1.7,3.4.86,4.74,1.51,7,4,10,5.22,9.19,2.54,12.23,3.47a29.64,29.64,0,0,1,6.75,2.82s2.25,10.11,1.57,10.58c-.54,0-5.16-2.05-10.7-5.1C294,185.32,288,180.4,285.47,180.2Z"/><path class="cls-9" d="M332.41,153.15a12.41,12.41,0,0,0-8.22,6.37,24.36,24.36,0,0,0-1.12,2.57c-1.47,3.73-3.48,7.11-4.95,10.83a22.24,22.24,0,0,0,6.47,3.13,13.75,13.75,0,0,0,6,.8,2.9,2.9,0,0,0,1-.22,3.3,3.3,0,0,0,1.06-.91c.63-.72,1.24-1.45,1.83-2.2a6,6,0,0,0,1.23-2.1,6.35,6.35,0,0,0-.29-3.28"/><g class="cls-28"><path d="M328.81,163.33a1.21,1.21,0,0,1,.47-.4.87.87,0,0,1,1,.44,2.25,2.25,0,0,1,.2,1.15,15.45,15.45,0,0,1-.7,4.47l.47,7.86v0a14.07,14.07,0,0,1-5.64-.82c-.85-.32-1.77-.65-2.69-1C322.84,170.59,325.87,166.84,328.81,163.33Z"/></g><path class="cls-29" d="M341,145.34s.11,4.92-.65,5.25a20,20,0,0,1-3.18,1l-.05,10.19,13.59-2,9.35-5.2s-9.72-3.22-9.8-4.19.53-6.42.53-6.42"/><path class="cls-29" d="M361.88,292.82v0c3.72,17.63,1.95,41.84,2.77,55.11-.19.06-5.05.66-5.05.66S348.12,292.7,346,282a15.51,15.51,0,0,1-.27-2.07c-.5-8.06,6.77-8.47,10.86-1.81a27,27,0,0,1,1.87,3.6c.23.53.45,1.06.67,1.63h0A53.16,53.16,0,0,1,361,289l0,.21c.17.56.31,1.13.45,1.7l0,.13C361.63,291.61,361.75,292.2,361.88,292.82Z"/><path class="cls-29" d="M340.11,229.55c.14,1.46.92,8.4,1.85,16.59.8,6.88,1.67,14.64,2.35,20.78.51,4.61.88,8.29,1,10a23.65,23.65,0,0,0,.41,3v0c1.75,8.05,7.31,8.52,10.7,6.65a6.45,6.45,0,0,0,1.28-.88,4.31,4.31,0,0,0,1.44-2.37v0c.21-1.65.43-3.91.62-6.59v0s0,0,0,0l0-.05c.41-5.24.76-12,1.07-18.52.37-8,.6-15.8.66-20.18,0-.25,0-.48,0-.72.06-13.41-12.27-22-19.93-17.85a1.38,1.38,0,0,0-.27.14l-.3.18c-.87.58-1.16,2.58-1.18,4.88C339.88,226.21,340,228,340.11,229.55Z"/><path class="cls-29" d="M358.87,280.17l.94-3.51a.06.06,0,0,1,0,0A56.07,56.07,0,0,0,361,289l0,.21c.13.55.28,1.14.45,1.7l0,.13a9.17,9.17,0,0,1,.4,1.81v0c0,1.6-3.38-5.48-4.16-7.13l-.16-.34.92-3.68Z"/><path class="cls-29" d="M332.31,296.18v0c.35,18.46-5.35,40.16-6.86,53.56-.18,0-4.66-.6-4.66-.6s-.85-56.54-.91-67.71a17.15,17.15,0,0,1,.12-2.13c.91-8.14,7.52-6.74,10.07.9a34.42,34.42,0,0,1,1.07,4c.12.58.22,1.17.33,1.79v0c.31,1.9.53,3.92.67,6v.21c.06.61.08,1.21.11,1.81v.14C332.29,294.91,332.3,295.54,332.31,296.18Z"/><path class="cls-29" d="M328.48,288.66a5.08,5.08,0,0,0,1.3-.57,3.7,3.7,0,0,0,1.69-2v0c.49-1.59,1.06-3.81,1.7-6.43,0,0,0,0,0,0l0-.07c1.25-5.09,2.73-11.7,4.11-18.12,1.69-7.91,3.22-15.58,4-19.93.07-.23.75-3.4.79-3.63,2.37-13.49-8.15-22.27-15.79-19.7l-.3.1c-1.53.62-2,6-2.31,9.68s-2.94,41.5-3.59,48.35a27.31,27.31,0,0,0-.13,3.07C320.18,287.81,325.11,289.66,328.48,288.66Z"/><path class="cls-29" d="M331.75,282.86l1.44-3.26a.06.06,0,0,1,0,0,62.51,62.51,0,0,0-1,12.49v.21c0,.59.05,1.21.11,1.81v.14a10.85,10.85,0,0,1,.05,1.89v0c-.27,1.59-2.12-6.29-2.54-8.13l-.08-.37,1.45-3.44Z"/><path class="cls-17" d="M356.88,203.43s8.2,12.8,7.18,25.43c-.42,5.25-1.07,9.89-1.67,15.18-.09.76-1.28,11.87-.94,11.88,0,0-20.39,6.3-40.09-2,0-1.34-1.57-27.2,9.07-51.84A173,173,0,0,0,356.88,203.43Z"/><path class="cls-9" d="M324.19,174.63c.08,3.6,2,5.79,4.74,8.83.35.54,1.21,8.57,1.5,13.9.15,2.78-1.65,6-.62,6.22,4,3.45,20.53,4.56,27.07-.15-.69-5.81.21-18.37,2-24.87.27-1,.51-1.85.73-2.5,1.63-4.94,4.58-19,2.54-20-.52-.26-1.28-1.88-2.06-2.12-3.42-1-8.44-2.66-8.44-2.66s-3,8.76-10.67,9.82c-4.2-1.73-3.83-7.05-3.78-9.49-1.37.38-2,.76-6.24,2-1.19,1.72-.16,5.32-2.09,10.67C328.36,165.6,324.1,170.25,324.19,174.63Z"/><path class="cls-29" d="M332.54,128s.26,12.07,1.73,16.58c1.09,3.33,4.58,3,8.31,2.93,10.26,0,12.11-13.94,12.05-14.62s-15.14-6.52-15.14-6.52Z"/><path class="cls-30" d="M309.53,355.12c4,.73,8.37-.41,10.14-.1,1.46.25,5.23,1.21,6.64-.06s1.18-5.73-.44-6.33a6.29,6.29,0,0,1-1.05.25,11,11,0,0,1-4.79-.39c-3.08,1.27-3.2,1.82-6.69,2.53a22.79,22.79,0,0,0-4.46,1.35C307.37,353.06,307.24,354.72,309.53,355.12Z"/><path class="cls-30" d="M353.2,356.9c4.06-.68,6.63-2.92,8.4-3.23,1.46-.26,5.15-1,5.53-2.49.29-1.12-.82-5.79-2.55-5.81a6,6,0,0,1-.9.6,11.24,11.24,0,0,1-4.64,1.25c-2.47,2.23-2.39,2.79-5.44,4.63a23,23,0,0,0-3.74,2.78C348.67,355.79,350.92,357.29,353.2,356.9Z"/><path class="cls-29" d="M359.22,174.24c-6.86,5.13-20.19,21.67-24.43,22.54-.11,0-.21,0-.33,0V184.93l.3-.41s11.09-14.76,14.14-19.36c3.36-5.08,6.38-9.41,11.29-10.26C361.32,155.61,359.8,173.8,359.22,174.24Z"/><path class="cls-9" d="M360.32,154a9.82,9.82,0,0,0-5.09,1.77c-2,1.64-12.4,16.93-12.4,16.93a10.72,10.72,0,0,0,3.38,5.07,13.94,13.94,0,0,0,6.86,3,64.08,64.08,0,0,0,7.49-6.93C371.15,160.64,360.32,154,360.32,154Z"/><path class="cls-26" d="M360,153.54c.23-.12.46-.26.67-.39a5.68,5.68,0,0,0,2.76-2.77c.71-1.93,1.05-4.88.05-6.75-.67-1.27-1.94-2.09-2.81-3.23a9.93,9.93,0,0,1-1.66-5.61,37.8,37.8,0,0,0-.4-5.93c-.71-3.31-1.66-6.46-4.21-8.59-4.09-3.42-12.28-5.45-16.74-1.64-.81.7-1,1.25-2.06,1.36a8.06,8.06,0,0,0-3.74,1.09c-1.46.85-3.24,2-3,4a6.86,6.86,0,0,0,2.79,4.06,3.38,3.38,0,0,0,1.57.35c1.74,0,3.18-1.1,4.89-.91a3.17,3.17,0,0,1,2.13,1.18c.62.76.54,1.82,1.25,2.53,1.15,1.13,2.94,1,4.3,1.78a1.4,1.4,0,0,1,.59.48,1.52,1.52,0,0,1,.15.73c0,.72,0,1.44.08,2.16.67-.3.74-1.26,1.3-1.75a1.55,1.55,0,0,1,2,.13,3.29,3.29,0,0,1,.94,1.87,5.49,5.49,0,0,1-.38,2.57c-.45,1.47-1.7,2.78-2.71,1.82-.74,1.08.06,2.88.09,4.1,0,1,0,2.89-.9,3.53s-2.16.14-2.21,1.65a2.91,2.91,0,0,0,2.71,2.63,10.16,10.16,0,0,0,4-.71,6.37,6.37,0,0,1,4.06-.2,12.89,12.89,0,0,0,2.28,1A3.58,3.58,0,0,0,360,153.54Z"/><path class="cls-29" d="M306.57,172.32c-4.05-1.37-4.47-1.43-6.77-3.5s-1.91-4.73-1.15-5.07,4,2.08,5.46,2.79c1.31.61,3.07,1.72,3.29,1.38s-.29-.35-1.63-1.46-1.81-2.13-.35-1.86a11.35,11.35,0,0,1,4.47,2.39c1.15,1,4.15,4.5,6.76,6.38S329.1,181,329.1,181a44,44,0,0,1,5.84,4.39s.3,11.15-.48,11.44c-1.91.45-11.94-10.55-18.88-17.19C315.58,179.62,310.63,173.69,306.57,172.32Z"/><path class="cls-9" d="M333.23,138.84s6.49,1.71,11.26-.61c0,0,.41,4.27,1,5.47a8.59,8.59,0,0,1-7.47,3.87C332.78,147.51,333.23,138.84,333.23,138.84Z"/><path class="cls-31" d="M344.34,138.61a19.13,19.13,0,0,0,3.5-2.37"/><path class="cls-31" d="M345,143.9a30.35,30.35,0,0,0,3.28-2.1"/><path class="cls-29" d="M347,137.43a3.08,3.08,0,0,1,1.64-2.45c1.46-.55,2.37,1.29,2.35,2.89s-1.08,4.93-2.91,4.56S347,137.43,347,137.43Z"/><ellipse class="cls-14" cx="495.87" cy="359.35" rx="55.5" ry="6.58"/><path class="cls-32" d="M531.76,349.06c-.72,1.88-3.35,2.54-7.3,3.92s-10.38,4.36-13.42,5.29-3.87-1.28-2.53-2.24A35,35,0,0,0,513.6,351c1.55-1.84,5.61-5.75,5.68-6.78a6.26,6.26,0,0,0,0-.75,8.46,8.46,0,0,0-.75-2.68l3.34-1.51,3.66-.49s.57,1,1.45,2.29c.37.57.8,1.19,1.27,1.84C530,345.33,532.14,348.07,531.76,349.06Z"/><path class="cls-32" d="M479.34,356.9c-1.32,1.51-4,1.23-8.19,1.18s-11.26.55-14.44.38-3.19-2.51-1.6-3a36.12,36.12,0,0,0,6.52-3c2.07-1.21,7.69-3.49,8-4.49a15.08,15.08,0,0,0-.05-3.71h3.84l3.42.18s.34,1.63.83,3.53c.15.62.32,1.27.5,1.89C479,352.78,480,356.1,479.34,356.9Z"/><path class="cls-33" d="M526.25,338.75a28.25,28.25,0,0,1-7.94,2.54c-.46-1-.95-2-1.43-3.08l-28.41-55.4,17.65-3.76s-.18.76,1.29,3.84,4.49,5.6,10.79,22.18C524.27,321.2,524.17,330.67,526.25,338.75Z"/><path class="cls-33" d="M472.18,222.69s11,41.33,16.29,60.12c7.51.58,12.73-1.87,17.65-3.76a118,118,0,0,1-.45-18.21c.27-5.65,1.8-12.84,1.73-19-.1-10.09-1-18.15-3.58-22.53Z"/><path class="cls-33" d="M481.07,265.33c6-14.61,12.52-29.13,16.32-44.49l-29.6-1.4s-5.49,20.61-8.54,55.7a21.86,21.86,0,0,0,.2,5.3L468.71,339c.23,2.11.52,4.12.76,5.83a15.52,15.52,0,0,0,7.71-.13c0-.5,0-.95,0-1.35.33-8.53,4.16-17.64,3.29-35.36s-3.12-21.68-3.58-25.08a17.6,17.6,0,0,1-.21-4.64C477.23,273.86,479.38,269.48,481.07,265.33Z"/><path class="cls-9" d="M507.06,230s-32.62,6.78-41.93-1.66c1.53-6.76,3.52-11,5.15-18.82a39.15,39.15,0,0,0,.51-13.76l27.9-1.14a41.92,41.92,0,0,0,.4,5.65,46,46,0,0,0,3.07,11.28A68.4,68.4,0,0,1,507.06,230Z"/><path class="cls-9" d="M502.64,182.5s-3.9,14-3.18,18.95c0,0-10.34,3.84-28.36.07,0,0-.44-16.17-2.71-20.08a36,36,0,0,0,.82-3.81c1.77.64,3,0,3.1-3.13.25-11.05-1-12.2-1-12.2l10.33-2.09,10.64.28a121.32,121.32,0,0,1,11.63,3.92S500.19,175.26,502.64,182.5Z"/><path class="cls-9" d="M471.34,162.3s-6.24,1.2-7.11,10c-.62,6.28,2.31,30.39,2.31,30.39a12.09,12.09,0,0,0,4.68-6.2c1-3.88-.06-10.4.41-13.22a84.08,84.08,0,0,0,1-10.72C472.63,169.51,472.69,163.36,471.34,162.3Z"/><path class="cls-32" d="M512.41,207.35a41.09,41.09,0,0,0,.63-12.5c-.47-4.64-1.66-11.18-3-20.72s-7.61-10.27-7.61-10.27c-5.83,8.66.25,18.64.25,18.64l.56,21.67S509.72,202.3,512.41,207.35Z"/><path class="cls-9" d="M499.38,185.23a21.32,21.32,0,0,0,13.19-.48s-.62-3.33-1.31-7.44c-.88-5.3-2.74-11.78-8.87-13.45A9.27,9.27,0,0,0,499,169.6C498.31,173.51,499.38,185.23,499.38,185.23Z"/><rect class="cls-20" x="463.44" y="173.47" width="41.21" height="38.18" transform="translate(27.5 -58.34) rotate(7.1)"/><rect class="cls-21" x="465.43" y="173.59" width="41.21" height="5.93" transform="translate(25.54 -58.71) rotate(7.1)"/><rect class="cls-20" x="465.2" y="171.88" width="42.53" height="5.85" transform="translate(25.33 -58.77) rotate(7.1)"/><g class="cls-34"><circle class="cls-35" cx="482.26" cy="193.91" r="10.08"/><path class="cls-36" d="M485.64,193.91a3.38,3.38,0,1,1-3.38-3.38A3.38,3.38,0,0,1,485.64,193.91Z"/><path class="cls-36" d="M484,184s3.83.31,8.08,4c2.79,2.41,5.65,7.72,6.18,9.3,0,0-.33.73-3.25,1.4a13.76,13.76,0,0,1-5.87-.28S494.59,187,484,184Z"/></g><path class="cls-20" d="M469.72,178.75a7.84,7.84,0,0,1-3.3,2.68s-.77,2.31-1.84,3a1.31,1.31,0,0,0-.41.94l1.46-11.73a7.08,7.08,0,0,1,2.72.21C470.41,174.62,471.3,176.61,469.72,178.75Z"/><path class="cls-32" d="M470.54,178.31a11.06,11.06,0,0,1-4.12,3.12s-.77,2.31-1.84,3a1.31,1.31,0,0,0-.41.94,1.7,1.7,0,0,1,0,.22s0,.07,0,.1l-2.46,19.84c-2-.57-5-7.07-4.67-11.46s3.39-10.48,3.66-14.72.14-4.74,1.83-5.18a14.23,14.23,0,0,1,6.68-.75C471.31,173.86,472.12,176.18,470.54,178.31Z"/><path class="cls-32" d="M491.26,154.3s-.54,4.56.54,5.76a18.24,18.24,0,0,0,3.08,1.19s-3.79,6.81-9.71,5.73c-4.73-.86-5.07-6.45-5.07-6.45s1.86-.3,2.09-.66a11.88,11.88,0,0,0,0-2.87Z"/><path class="cls-37" d="M482.18,156.58a11.42,11.42,0,0,0,8.22-2,10.17,10.17,0,0,1-8.21,5.33Z"/><path class="cls-32" d="M478.72,133.45c-1.61,2.46-.67,5.14-1,8.06-.21,2-3.26,14.15,3.17,15.55,2.36.52,8.29-.11,11.56-2.43a13.73,13.73,0,0,0,5.69-10.17,16.93,16.93,0,0,0-.33-4.32c-.74-3.65-2.59-7.25-5.76-9.2s-7.79-1.75-10.21,1.08"/><path class="cls-38" d="M488.14,127.4c-.18-.36-.6-.37-1-.3-2.22.37-4.48,2.4-5.63,5.05a4.38,4.38,0,0,0-.45,2.7,2.79,2.79,0,0,0,.73,1.21c3.87,4.2,10.54,3.61,14,8.32a15.92,15.92,0,0,0,.7-7.95,16.94,16.94,0,0,0-2.6-6.53c-1-1.55-2.4-3-4.17-2.57"/><path class="cls-38" d="M493.6,139.84a4.9,4.9,0,0,1,1.1,3.91c-.22,1.38-1,2.76-.63,4.1a.5.5,0,0,0,.16.28c.37.28.8-.53,1.25-.4a3,3,0,0,1-.1,2.48,15.23,15.23,0,0,0-1,2.37.81.81,0,0,0,0,.38c.09.25.4.34.66.36a6.29,6.29,0,0,0,4.43-1.71,16.34,16.34,0,0,0,5.72-10.49,8.64,8.64,0,0,0-.15-3.58,4.33,4.33,0,0,0-2.19-2.73,6.87,6.87,0,0,0-.19-4.55,6.47,6.47,0,0,0-2.08-2.18c-4-3-11.06-5-15.26-1.2a4.35,4.35,0,0,0-1.44,2.26c-.39,1.85.91,3.66,2.23,5.08a43.19,43.19,0,0,0,5.92,5.3"/><path class="cls-38" d="M485.68,128a6.45,6.45,0,0,0-7.26,2.89,15.33,15.33,0,0,0-.67,10.63c.41-3.45.81-4.43,1.9-6.41s3.54-3.18,5.46-4.38"/><path class="cls-9" d="M477.1,145.72s7.43,3.26,12,2.86c0,0,.14,5.19.7,6.68a20.11,20.11,0,0,1-9.33,1.67C475.88,156.41,476.33,148.69,477.1,145.72Z"/><path class="cls-39" d="M488.89,148.91a14.6,14.6,0,0,0,5.67-1.35"/><path class="cls-39" d="M489.22,155.14a12.05,12.05,0,0,0,5.45-2.58"/><path class="cls-32" d="M492,151.39c.79-1.35,1.93-3.88,2.16-4a5.08,5.08,0,0,1,1.47-.39,1.67,1.67,0,0,1,1.36.53,2,2,0,0,1,.33,1.36,4.81,4.81,0,0,1-2.7,4,2.41,2.41,0,0,1-2,.17,1.25,1.25,0,0,1-.66-1.67"/><path class="cls-32" d="M511.63,202.57c-2.73-1.94-6.52.07-8.24,1.43s-5,5.73-5.52,6c-2.68,1.49-4.83.8-7,.46h0a10.35,10.35,0,0,0-2-.13c-.5-.05-1-.11-1.63-.2-1.82-.45-3.81-.87-4.58-.42-1.63,1,2.26,2.16,2.26,2.16-5.94-1.41-8.38-1.14-7.29-.32,1.37,1,4.4,1.54,7.29,2.15a83.52,83.52,0,0,0,13.05,1.14,24.29,24.29,0,0,0,9-1.79,9,9,0,0,0,5.82-7.09C512.91,204.49,512.62,203.26,511.63,202.57Z"/><path class="cls-40" d="M479.34,356.9c-1.32,1.51-4,1.23-8.19,1.18s-11.26.55-14.44.38-3.19-2.51-1.6-3a36.12,36.12,0,0,0,6.52-3c2.07-1.21,7.69-3.49,8-4.49a26.21,26.21,0,0,0,8,0c.15.62,1,1.75,1.18,2.36C480.18,354,480,356.1,479.34,356.9Z"/><path class="cls-40" d="M531.76,349.06c-.72,1.88-3.35,2.54-7.3,3.92s-10.38,4.36-13.42,5.29-3.87-1.28-2.53-2.24A35,35,0,0,0,513.6,351c1.55-1.84,5.61-5.75,5.68-6.78a6.26,6.26,0,0,0,0-.75s4.83.54,7.7-2.39a24.06,24.06,0,0,0,2,2.09C531.53,345.87,532.14,348.07,531.76,349.06Z"/><path class="cls-38" d="M499.86,130.48s4.69-6.11,9.67-4.25c6.78,2.54,8.65,16.55-6.45,15"/><rect class="cls-20" x="209.97" y="238.16" width="199.83" height="151.38"/><text class="cls-41" transform="translate(220.1 343.29)">DON<tspan class="cls-42" x="97.68" y="0">A</tspan><tspan class="cls-43" x="127.6" y="0">TE</tspan></text><rect class="cls-19" x="374.22" y="365.22" width="21.63" height="14.92"/><rect class="cls-19" x="354.55" y="365.22" width="14.48" height="14.92"/><rect class="cls-19" x="409.8" y="238.17" width="52.33" height="151.38"/><polyline class="cls-21" points="409.8 238.16 401.13 283.57 209.97 283.57 209.97 264.49 238.13 253.74"/><polygon class="cls-19" points="395.53 275.92 195.71 275.92 209.97 238.16 409.8 238.16 395.53 275.92"/><polygon class="cls-21" points="462.13 247.97 462.13 283.57 421.46 283.57 409.8 238.17 462.13 247.97"/><polygon class="cls-19" points="462.13 238.16 409.8 238.16 424.07 275.92 476.4 275.92 462.13 238.16"/><path class="cls-14" d="M205.34,428.14c0,2.61-45.16,4.72-100.87,4.72S3.61,430.75,3.61,428.14s45.16-4.73,100.86-4.73S205.34,425.53,205.34,428.14Z"/><rect class="cls-20" x="119.81" y="362.66" width="54.95" height="51.66"/><rect class="cls-19" x="174.75" y="362.66" width="21.53" height="51.66"/><rect class="cls-44" x="144.33" y="362.66" width="5.89" height="4.06"/><rect class="cls-45" x="182.1" y="362.66" width="4.25" height="4.06"/><rect class="cls-20" x="125.71" y="310.99" width="44.16" height="51.66"/><rect class="cls-19" x="169.88" y="310.99" width="17.31" height="51.66"/><rect class="cls-44" x="145.42" y="310.99" width="4.74" height="4.06"/><rect class="cls-45" x="175.78" y="310.99" width="3.41" height="4.06"/><g class="cls-22"><path class="cls-46" d="M134.36,387.17a4,4,0,0,1-1.2-.07,5,5,0,0,0-3.15,0c-1.48.74-1.26,4.09.36,5.43a11.4,11.4,0,0,0,4.23,1.9"/><path class="cls-9" d="M154.24,383.84c-2.26-.63-4.35-1.58-6.45-1.58s-4.19.95-6.44,1.58c-4.5,1.28-5.22,3.12-7.8,3l.55,7.6s4.25,3.57,13.69,3.57,13.69-3.57,13.69-3.57l.55-7.6C159.45,387,158.74,385.12,154.24,383.84Z"/><path class="cls-46" d="M161.23,387.17a3.9,3.9,0,0,0,1.19-.07,5,5,0,0,1,3.16,0c1.48.74,1.26,4.09-.36,5.43a11.4,11.4,0,0,1-4.23,1.9"/></g><rect class="cls-47" x="86.48" y="308.52" width="17.64" height="3.34" rx="1.49"/><path class="cls-47" d="M204.22,416.24H114.15a4.42,4.42,0,0,1-4.41-4.41V312a.75.75,0,0,0-.75-.74H97.48a1.12,1.12,0,0,1,0-2.23H109a3,3,0,0,1,3,3v99.79a2.19,2.19,0,0,0,2.19,2.18h90.07a1.12,1.12,0,1,1,0,2.23Z"/><path class="cls-29" d="M73.71,410.7s.42,8.29,0,10.19c-.34,1.5-6.13,1.73-6.7.94s-1-10.5-1-10.5"/><path class="cls-29" d="M24,411s-2.66,5.1-3.34,6.5S14,416,14.49,415.11c1.48-2.85,4.41-10.46,4.41-10.46"/><path class="cls-33" d="M71.11,299.79,64.36,326c-.84,3-1.75,6.15-2.66,9.34-.35,1.21-.69,2.43-1.05,3.62l-2.33,8.16c-.7,2.49-1.37,4.84-2,7-.39,1.44-.73,4.86-1.38,7a20.08,20.08,0,0,1-2.27,5.09c-4.39,7-27.5,44-30.48,48.7-2.74-.71-6-3.08-6.89-3.76,4.29-10.4,8.21-30.25,16-42,.85-1.28,4.69-6.43,5.68-7.51,2.6-9.28,5-30.83,5.52-37.92a27.49,27.49,0,0,0-.38-6.9s0,0,0,0c-1-5-2.46-14.82,5.41-22.68a.56.56,0,0,1,.62-.13c1.79.77,10.16,4.22,17,4.69l5.41.36A.57.57,0,0,1,71.11,299.79Z"/><path class="cls-48" d="M60.65,339l-2.33,8.16c-.7,2.49-1.37,4.84-2,7l-7-31.87,6.37,7.18Z"/><path class="cls-33" d="M48.75,322.41c-.83-.39-4.22-2.3-6.27-8.46,0,0,24.75-18.09,30.39-16.29,1.61.52,5.55,55.36,5.52,56.44,0,.54,0,6.68,0,7.32C78,370.6,74,415.93,74,415.93c-1,.35-4.29.25-8.66.18-1.25-11.44-5.85-33.53-1.94-53.71.26-1.38-.45-2.73-1.39-7-3.69-9.51-10.67-26.9-13-32.66A.57.57,0,0,0,48.75,322.41Z"/><path class="cls-9" d="M38.82,263.21c0,2.91.2,5.8.43,8.58.31,3.41.68,9.35.9,12.32a89.52,89.52,0,0,1-1.34,22.09c.47.2,3.16.58,5.68,1.34,12.5,3.76,30.7-2,30.7-2-.12-1.34-1.54-13.62-1.5-14.72a92.73,92.73,0,0,0-.83-9.24c-.2-1.7-.44-3.55-.72-5.53-.23-1.67-.49-3.44-.77-5.26-.34-2.11-.62-4.19-.9-6.21-.31-2.29-.6-4.51-.92-6.7a87.68,87.68,0,0,0-2.28-11,39.82,39.82,0,0,0-3.08-8c-3.41-6.57-11.93-8.1-13.37-8.24a.55.55,0,0,0-.37.1C44.28,234.87,41.14,242,39.74,250A74.12,74.12,0,0,0,38.82,263.21Z"/><path class="cls-23" d="M51.1,246c-.29,6.82,2.76,25.85,12.18,34.62a.6.6,0,0,0,.13.09c.49.26,3.41,1.67,8.9.94a.57.57,0,0,0,.49-.62c-.37-3-.84-6.43-1.41-10.1a.54.54,0,0,0-.11-.26L52.1,245.61A.56.56,0,0,0,51.1,246Z"/><path class="cls-29" d="M52.61,250.18a15.61,15.61,0,0,1,0-5.07c.54-5,5.8-4.07,6.75-3.47s3.85,2.82,6.94,12c2.13,6.32,3.4,11.19,4.19,14.23.25.91.6,2,.88,2.93l-7.23,9.75c-3.12-3.49-6.86-10-9.33-17.37C53.24,258.44,53.28,253.66,52.61,250.18Z"/><path class="cls-29" d="M74.82,278c2.78,4,12.6,20.06,17.18,25.75l-4,3.1c-.15-.25-8-7.63-12.93-12.63C70,289,64.36,281.78,62.45,278.43a38,38,0,0,1-1.84-4.6l10.14-5.1A36.81,36.81,0,0,0,74.82,278Z"/><path class="cls-29" d="M76.28,210.67A78.32,78.32,0,0,1,73,223a29.26,29.26,0,0,1-2.37,5c-1.33,2.15-2.26,3-4.15,3h0a19,19,0,0,1-4.11-.67c-1-.23-1.12.31-1.22.63a8.14,8.14,0,0,0-.59,3.64c-1.67-.07-7-.47-9.25-2.6l0,0a4.63,4.63,0,0,1-.92-1.19c1.84-1.56,1.72-6.63,1.72-6.63h0a10.43,10.43,0,0,1-1.2-6.39c.74-7.23,6.39-13.86,6.78-14s11.53,1.9,12,2,5.25,3.56,6.46,4.43A.52.52,0,0,1,76.28,210.67Z"/><path class="cls-9" d="M68.35,257.94c-2,2.4-12.19,5.88-15.48,6.11-1.83-4.77-9.11-24.39.67-26.73C62.38,235.21,65.81,248.86,68.35,257.94Z"/><path class="cls-49" d="M77.54,213.64c-4,2.33-13.34-.32-15.05.69s-2.35,5.22-3.14,5.35-.64-1.13-.55-2.67-.93-4.48-3.38-3.24c-2.82,1.43-.88,4.15-1.74,6.87a10.38,10.38,0,0,1-1.55,3.44.56.56,0,0,1-.9-.11c-2-3.51-3.57-9.46-2.12-14.1.89-5.68,4-10.28,10.23-10.22a.81.81,0,0,0,.33-.11C77,193.13,78.84,209.4,77.54,213.64Z"/><path class="cls-40" d="M66.53,419.24a14.2,14.2,0,0,0-1.35,3.31,10.82,10.82,0,0,0-.16,4,1.85,1.85,0,0,0,1.83,1.57H87.06a1.93,1.93,0,0,0,1.68-2.91,3.73,3.73,0,0,0-2.34-1.5,66.9,66.9,0,0,1-9-2.9L73.87,419S72.07,420.1,66.53,419.24Z"/><path class="cls-40" d="M30.92,426.38a2.18,2.18,0,0,1-2.06,1.31H22.21a6.05,6.05,0,0,1-3.57-1.41,11.27,11.27,0,0,0-3.6-2.52,11.32,11.32,0,0,1-3.72-2.66c-.78-.78-.7-1.3-.7-1.3,1.43-4.16,4.24-5.43,4.24-5.43,4.22,3.63,5.92,2.89,5.92,2.89A11.6,11.6,0,0,0,24,420.59c1.17.86,3.42,2.41,4.71,3.16C31.07,425.1,31.23,425.49,30.92,426.38Z"/><path class="cls-29" d="M99.08,308.91a4.58,4.58,0,0,1,1.18-.15c1.09,0,1.43-1.06,1.12-1.25s-2.56-.26-3.26-.47c-.25-.08-.56-.21-.85-.33a.53.53,0,0,0-.14-.1c-1.08-.44-2.89-1.38-4-1.94a8.91,8.91,0,0,1-2.31-2.42l-3.56.53L86,304.9a25.27,25.27,0,0,1,4.15,4.79c.4.65.5,1.55,1.18,2.61v0a.74.74,0,0,0,.09.12c.15.2.62.57,1.91.77a31.39,31.39,0,0,0,5.12,0,2.22,2.22,0,0,0,.56,0,1.73,1.73,0,0,0,1.49-1.36h-.73c-.88,0-1.18-1.36-1.18-1.36h0c0-.09,0-.18-.07-.28v0A1.32,1.32,0,0,1,99.08,308.91Z"/><path class="cls-47" d="M142,415.6,139.47,397a6.34,6.34,0,0,0-4.19-5.16l-24.85-8.74.56-1.58,24.84,8.75a8,8,0,0,1,5.3,6.51l2.48,18.65Z"/><polygon class="cls-47" points="127.39 422.54 123.22 422.54 120.64 414.93 129.97 414.93 127.39 422.54"/><path class="cls-20" d="M120.2,422.59a5.11,5.11,0,1,1,5.11,5.1A5.11,5.11,0,0,1,120.2,422.59Z"/><circle class="cls-47" cx="125.31" cy="422.59" r="2.09"/><polygon class="cls-47" points="195.95 422.54 191.78 422.54 189.2 414.93 198.53 414.93 195.95 422.54"/><path class="cls-20" d="M188.76,422.59a5.11,5.11,0,1,1,5.11,5.1A5.11,5.11,0,0,1,188.76,422.59Z"/><circle class="cls-47" cx="193.87" cy="422.59" r="2.09"/><path class="cls-9" d="M73,223a25.44,25.44,0,0,1-2.33,5.09c-.42.68-2,3.49-4.5,2.91-3.49-.82-7.3-5.61-7.3-5.61l2-6.39A42.84,42.84,0,0,0,73,223Z"/><path class="cls-31" d="M59.7,225.9s-4.77-3.54-5.78-7.21c-.56-2-.18-3.8.9-4.54a3.26,3.26,0,0,1,2.68-.37c2.27.73,1.62,4.88,3.74,5.68"/><path class="cls-29" d="M58.56,215.14c-.33-.7-1.32-2.52-3.25-2s-3.33,4.52-1,8.08c1.44,2.19,4.29-.81,4.46-2.66S58.86,215.77,58.56,215.14Z"/><path class="cls-50" d="M56.22,215.23a1.58,1.58,0,0,1,1.25,1.05c.46,1,.46,3.24-.86,3.38a1.22,1.22,0,0,1-1.29-1.43,1.58,1.58,0,0,1,1.76-1.31A1.7,1.7,0,0,0,56.22,215.23Z"/><path class="cls-51" d="M154,351.8a29.8,29.8,0,0,0-5-5c-1.36-1-3.66-.61-5.75-1.92-.89-.55-2.05-1.7-3.41-2.71-1.84-1.38-3.39-3.09-3.44-3.54-.09-.79.63-1.2,2.16-.28s4,3.33,4.51,3.14-1.08-1.53-1.93-2.29-5.53-5.37-5.8-5.8c-.43-.69-.14-1.41.86-1.46s8.25,7,8.57,6.88,0-.8-.56-1.39-8-9-8.39-9.5c-.49-.73,0-2,1.4-1.37s9,8.25,9.29,8.57.94.8,1.21.45-4.83-6-6.5-9c-.37-.68.13-2.18,2-.59,1.64,1.42,6.4,7.76,7,8.11s.89.54,1-.16-1.57-3.22-2-3.87-.78-2.27-.09-2.66,4.66,4.05,5.62,5.1.68,2.94,1.57,6.18,5,6.05,5,6.05A11.92,11.92,0,0,1,154,351.8Z"/><rect class="cls-20" x="417.01" y="349.24" width="71.73" height="68.1"/><rect class="cls-19" x="488.74" y="349.24" width="14.25" height="68.1" transform="translate(991.73 766.57) rotate(180)"/><rect class="cls-20" x="415.01" y="344.28" width="90.08" height="10.27"/><rect class="cls-21" x="417.01" y="354.55" width="85.98" height="3.57"/><path class="cls-52" d="M463.69,406.43a47.11,47.11,0,0,0-7.81-7.91c-2.14-1.53-5.76-1-9.05-3-1.39-.87-3.23-2.68-5.36-4.26-2.91-2.17-5.34-4.86-5.42-5.58-.14-1.23,1-1.88,3.39-.44s6.32,5.25,7.11,4.94-1.71-2.4-3-3.6-8.7-8.44-9.12-9.12c-.68-1.09-.23-2.23,1.35-2.3s13,11,13.49,10.83,0-1.27-.89-2.19-12.67-14.16-13.2-15c-.78-1.15.06-3.2,2.19-2.15,2,1,14.11,13,14.63,13.49s1.49,1.25,1.9.7-7.6-9.4-10.22-14.19c-.58-1.07.2-3.44,3.12-.93,2.6,2.23,10.08,12.21,11,12.76s1.4.86,1.61-.24-2.47-5.08-3.09-6.1-1.23-3.57-.14-4.19,7.34,6.38,8.85,8,1.06,4.62,2.47,9.73,7.95,9.52,7.95,9.52A18.78,18.78,0,0,1,463.69,406.43Z"/><rect class="cls-53" x="445.48" y="379.42" width="75.18" height="37.98"/><rect class="cls-19" x="506.49" y="379.42" width="29.1" height="37.98" transform="translate(1042.08 796.81) rotate(180)"/><rect class="cls-53" x="443.38" y="375.15" width="94.41" height="8.84"/><rect class="cls-21" x="445.48" y="383.99" width="90.11" height="3.08"/><g class="cls-22"><path class="cls-46" d="M463.65,398.36a3.9,3.9,0,0,1-1.19-.07,5,5,0,0,0-3.15,0c-1.49.74-1.27,4.09.35,5.43a11.4,11.4,0,0,0,4.23,1.9"/><path class="cls-9" d="M483.53,395c-2.25-.63-4.35-1.58-6.44-1.58s-4.19.95-6.44,1.58c-4.51,1.28-5.22,3.12-7.8,3l.55,7.6s4.24,3.57,13.69,3.57,13.69-3.57,13.69-3.57l.55-7.6C488.75,398.15,488,396.31,483.53,395Z"/><path class="cls-46" d="M490.53,398.36a3.9,3.9,0,0,0,1.19-.07,5,5,0,0,1,3.15,0c1.48.74,1.26,4.09-.36,5.43a11.38,11.38,0,0,1-4.22,1.9"/></g><path class="cls-54" d="M545.58,263.52c-3.69,4.42-6.71,14.85-10.48,19.21-1.85,2.14-15.18,13.69-24.15,18.64-.41-2.69-6.1-1-4.08-2.84,6.28-5.65,17.14-11.42,20.84-21.79,2.43-6.82,11.43-22,11.43-22"/><rect class="cls-19" x="492.96" y="264.86" width="41.99" height="38.91" transform="translate(1040.49 544.56) rotate(177.35)"/><rect class="cls-20" x="534.92" y="263.78" width="4.73" height="38.91" transform="translate(-12.52 25.14) rotate(-2.65)"/><rect class="cls-21" x="492.2" y="264.87" width="41.99" height="6.04" transform="translate(1038.22 511.78) rotate(177.35)"/><rect class="cls-21" x="534.16" y="263.8" width="4.73" height="6.04" transform="translate(-11.76 25.08) rotate(-2.65)"/><rect class="cls-19" x="491.22" y="263.12" width="42.88" height="5.96" transform="matrix(-1, 0.05, -0.05, -1, 1037.07, 508.21)"/><rect class="cls-20" x="534.07" y="261.99" width="5.95" height="5.96" transform="translate(-11.67 25.1) rotate(-2.65)"/><g class="cls-22"><path class="cls-9" d="M516.64,276.48a2.27,2.27,0,0,1-.27-1.63h0l-2.17.09L512,275h0a2.3,2.3,0,0,1-.12,1.65,8.76,8.76,0,0,1-2.1,2.73l-.05,0a4.43,4.43,0,0,0-1.52,3.53l.59,14.35a1.73,1.73,0,0,0,1.8,1.65l9.12-.38a1.72,1.72,0,0,0,1.65-1.79l-.59-14.35a4.45,4.45,0,0,0-1.81-3.39l0,0A8.79,8.79,0,0,1,516.64,276.48Z"/><path class="cls-9" d="M516.38,275.23l-4.32.17a1,1,0,0,1-1-.95h0a1,1,0,0,1,1-1l4.31-.18a1,1,0,0,1,1,1h0A1,1,0,0,1,516.38,275.23Z"/></g><path class="cls-14" d="M594.79,429.64c0,3.05-19.09,5.53-42.65,5.53s-42.65-2.48-42.65-5.53,19.1-5.54,42.65-5.54S594.79,426.58,594.79,429.64Z"/><path class="cls-32" d="M553.21,301.4l16.91-13.87s7.63,10.65,4.56,20.79c-1.51,5-3.35,7.44-4.17,9.8-.76,2.21-6.23,33.54-5.88,35.84s3,8.76,3.89,15.52c1.13,8.15.55,34.61,1.42,41.64s-5.63,8.13-6,5.75c-2.76-20.33-10.37-52.07-11.36-62.23S552.35,325.91,553.21,301.4Z"/><path class="cls-55" d="M552.89,321.39l7,16.78a37.25,37.25,0,0,0-5.31,17.4c-.17,3.22.07,6.45-.06,9.66a3.29,3.29,0,0,1-.11.7c-.91-4.78-1.58-8.72-1.83-11.29-.7-7.17-.54-18.57-.09-33.27C552.65,321.38,552.77,321.37,552.89,321.39Z"/><path class="cls-32" d="M563,410.34s1.45,7.38,1,8.31-2,3.64-3.53,4.61-5.23,2.19-5.52,2.64a1.1,1.1,0,0,0,.18,1.5,7.44,7.44,0,0,0,5.09,1.37c4.87-.74,5.4-2.88,8.24-3.18.49-.06,1.38.68,2.74,0a3.24,3.24,0,0,0,1.94-3.1c-.18-2-1.29-3.71-2.08-5.22s-1.27-8.39-1.27-8.39"/><path class="cls-40" d="M553.85,427.86c-.35-.61-.43-1.53-.1-1.75s3-1.46,3.93-1.88,2.44-.79,1.91-.51.43,1.35,1.31,1.31c3.05-.14,5.32-2.14,7.06-2.55,2.51-.59,3.6-3.53,3.72-4a11.69,11.69,0,0,1,1.75,3.46,5.89,5.89,0,0,1,.33,2.62,6.17,6.17,0,0,0-.31,2.49,4.9,4.9,0,0,1-1.81.63,7,7,0,0,1-1.93,0s-.88-1.61-1.75-1.45a8.82,8.82,0,0,0-2.38,1.07c-.35.41-.64,1.17-1.1,1.39a9.7,9.7,0,0,1-4,.94C557.2,429.77,554.44,428.9,553.85,427.86Z"/><path class="cls-32" d="M530,426.44c.36-.4,4.23-1,6-1.79a10.4,10.4,0,0,0,4.23-4c.41-1,.32-6,.27-8.08-.37-14.45-3-49.77-3.42-58.22-.68-14.7,1.23-29.87,6.89-53.47L565,284.69s5.89,11,3.92,21.45c-1.15,6.08-6.19,7-7,9.38S548.32,356,548.32,356A71.89,71.89,0,0,1,551,373.26c.12,7.7-3.38,30.94-4,39.8-.08,1.73-.38,5.87.13,7.19.63,1.62,2.22,3.51,2.14,5.55a3.14,3.14,0,0,1-2.39,2.77c-1.5.47-2.33-.39-2.84-.42-3-.12-3.79,1.92-8.92,1.92A8.12,8.12,0,0,1,530,428,1.09,1.09,0,0,1,530,426.44Z"/><path class="cls-40" d="M528.62,428.3c-.28-.66-.25-1.58.12-1.75s3.26-1.08,4.29-1.36,2.63-.4,2.05-.21.26,1.4,1.18,1.5c3.17.31,5.77-1.32,7.62-1.47,2.67-.21,3.65-3,3.83-3.41a11.94,11.94,0,0,1,1.89,3.68,5.66,5.66,0,0,1,0,2.65,5.72,5.72,0,0,0-.64,2.42,5.16,5.16,0,0,1-2,.35,7.86,7.86,0,0,1-2-.29s-.7-1.73-1.62-1.7a5.38,5.38,0,0,0-2.61.93c-.44.33-.9.88-1.41,1a10.68,10.68,0,0,1-4.16.31C531.83,430.62,529.09,429.42,528.62,428.3Z"/><path class="cls-17" d="M569.36,286.39c5.41,5.54,8.86,13.52,6.91,22.33-.51,2.34-3.45,8.62-4,10.94a133.5,133.5,0,0,0-2.89,19.61c-8.32,5-26.77,4.63-33.6-.23.6-8.8,1.18-14.35,2.62-24.55,2.19-15.4,5.43-19.77,7.72-25.93.27-1.08.27-3.27.52-4.55"/><path class="cls-9" d="M546.83,236c-1.32.44-.82,3.59-2.14,4-1,.32-2.84-.11-3.72.39-4.65,2.62-3.46,7.87-4,14.36-2,5-2.5,9.5-.93,12.28,2,3.46,4,4.43,6.41,7.3,1.79,2.14,2.38,6.54,2.74,11.27.07.81-.61,2.24-.41,3,.37,1.52,3.21,2.69,5.78,2.69,11.42,0,21.36-2.8,21.12-4.27-.17-1-.69-2.35-1.1-4.34-.9-4.37-1.58-15.29-2.28-19-1.78-9.48-3.09-16.53-7-25.28"/><g class="cls-28"><path d="M533.38,258.72a44.28,44.28,0,0,1,5.37-7l5.06,2.28c-2.38,4.57-2.81,9.94-3.9,14.93a11.51,11.51,0,0,1-2.92-.28c-.5-.81-.31-.41-1-1.57A20.33,20.33,0,0,1,533.38,258.72Z"/></g><path class="cls-32" d="M529.92,223.17a25.12,25.12,0,0,1-.86-6.55c.14-3.76.62-9.21,6.87-11.45s13.16-.9,15.2,3.61,1.58,11.34,1.88,15,3,8,3,8l-13.47,5.8s-2.2-4.79-3.1-5.36-1.22,1.7-4.22,1.45c-1.27-.11-2.63-2.39-3.66-5.2l-.1-.28a15.2,15.2,0,0,1-1.6-.14c-.93-.28-.86-.69-.65-1.28A15.25,15.25,0,0,0,529.92,223.17Z"/><path class="cls-9" d="M538.68,228.43l-5.35-5.26a3.56,3.56,0,0,1-3.41,0s-1,2.16-1.68,3.51c-.53,1.07,4.2,7,7.06,7,2.25-.17,2.58-3.14,3.38-4.69l-.5-.26Z"/><path class="cls-31" d="M533.3,223.5s.75-.61,1.11-2.95"/><path class="cls-32" d="M511.29,300.3c0,1.09-2.11,4.07-3.72,4.53a2.44,2.44,0,0,1-1.58,0c-.74.33-3.06.58-2.19-.79-1.48,1.24-3.16,1.18-5,1.09-.63,0-.6-.76.77-1.14a6.88,6.88,0,0,0,4.27-3.59c-.29-.22-.52.18-1.29.3s-1.32-.25-1.35-.62,1-.61,1.24-.76l2.57-1.7a4.85,4.85,0,0,1,2.71-1c.18,0,2,.09,1.57.77"/><path class="cls-32" d="M541.64,257.16c-2.23,4.61-8.09,19.9-9,21.66-3.58,6.94-21.94,22-21.94,22a3.74,3.74,0,0,1-3.12-3.63c5.26-3.65,15.13-19.3,17.17-21.18,1.33-1.21,7.28-25.38,7.28-25.38"/><path class="cls-9" d="M536.62,240.13c5.11-2,10-2,13.93-5.88,4,3.05-4.81,20.74-7,21.22s-4.73,10.14-5.65,11.57c-7.08-.18-9.67-4.05-9.67-4.05C529.65,254.68,531.66,242,536.62,240.13Z"/><path class="cls-26" d="M540.72,240.61c.35-1.33,1.36-2.39,1.58-3.75a6,6,0,0,0-.75-4,7.43,7.43,0,0,0-1.75-1.65C537,229,536,227.12,537,223.8a9,9,0,0,0,.48-3.33c-.11-1-.31-2.08-1.41-2.21a1.25,1.25,0,0,0-1.52.74c-.18.45.19,3.67-.88,1.85s-1.93-1.88-1.88-5.91c0-.47.17-2.42-.13-2.7-1.87,1.36-2.41,3.7-2.63,5.41-1.41-.59-1.8-2.62-1.8-3.39a8.8,8.8,0,0,1,.74-4c2.44-5.25,5-6.21,7.23-7.14a16.28,16.28,0,0,1,6.63-1.76c2.3.06,5.16.75,5.82,2.47,3.2-.82,5,2,5.78,3a16.32,16.32,0,0,1,2.46,4.76c.81,2.52,1,5.2,1.65,7.77a11.24,11.24,0,0,0,3,5.72c1.56,1.41,3.74,1.54,5.43,2.83a8.54,8.54,0,0,1,3.23,7.07c-.12,2.7-1.51,5.61.12,8.09.53.8,1.28,1.45,1.8,2.26a6.15,6.15,0,0,1-.12,6.34,11.22,11.22,0,0,1-5.5,4.7,16.09,16.09,0,0,1-6,.82c-3.88-.21-7.15,0-11.25-3.5-2.32-2-.84-3.12-3.07-5.22-1.25-1.18-3-1.81-3.94-3.35a6,6,0,0,1-.6-4.29A.94.94,0,0,0,540.72,240.61Z"/><path class="cls-32" d="M534.41,221.9s-1.2-3.11.91-3.9,2.69,2.32,2.35,3.9S536.12,226.15,534.41,221.9Z"/></g></g></g></svg>